<svg width="22" height="22" viewBox="0 0 22 22" fill="none" xmlns="http://www.w3.org/2000/svg">
<rect x="1" y="6.88159" width="14.1176" height="13.5294" fill="#D4AF37"/>
<path d="M14.5295 7.66667H1.83346M14.5295 7.66667L20.1178 1.88235M14.5295 7.66667V20.1176M4.33346 4.33333L2.66679 6L1.83346 6.83333L1.13771 7.52908C1.04961 7.61718 1.00012 7.73666 1.00012 7.86124V9.33333V11V14.3333V17.6667V19.3333V20.5303C1.00012 20.7897 1.21044 21 1.46987 21H2.6913H4.38248H7.76483H11.1472H12.8384H13.9334C14.3145 21 14.6793 20.8457 14.9447 20.5723L16.1472 19.3333L17.7648 17.6667L19.3825 16L20.8675 14.47C20.9525 14.3824 21.0001 14.265 21.0001 14.1429V11V7.66667V4.33333V2.66667V1.46975C21.0001 1.21031 20.7898 1 20.5304 1H19.3335H17.6668H14.3335H11.0001H9.33346H7.86137C7.73678 1 7.6173 1.04949 7.5292 1.13759L6.00012 2.66667L4.33346 4.33333Z" stroke="#262626" stroke-width="1.40925" stroke-linecap="round"/>
</svg>
