<svg width="22" height="22" viewBox="0 0 22 22" fill="none" xmlns="http://www.w3.org/2000/svg">
<path d="M7.47059 1H20.7059L14.5294 7.66668H1L7.47059 1Z" fill="#D4AF37"/>
<path d="M14.5294 7.85985H1.83333M14.5294 7.85985L20.1176 2.15936M14.5294 7.85985V20.1304M4.33333 4.57482L2.66667 6.21734L1.83333 7.03859L1.14002 7.72186C1.05044 7.81014 1 7.93067 1 8.05644V9.50236V11.1449V14.4299V17.7149V19.3574V20.5302C1 20.7896 1.21031 21 1.46975 21H2.69118H4.38235H7.76471H11.1471H12.8382H13.9394C14.3169 21 14.6786 20.8485 14.9434 20.5796L16.1471 19.3574L17.7647 17.7149L19.3824 16.0724L20.8649 14.567C20.9515 14.4792 21 14.3608 21 14.2374V11.1449V7.85985V4.57482V2.93231V1.75954C21 1.50011 20.7897 1.28979 20.5303 1.28979H19.3333H17.6667H14.3333H11H9.33333H7.85924C7.73584 1.28979 7.6174 1.33835 7.52951 1.42497L6 2.93231L4.33333 4.57482Z" stroke="#262626" stroke-width="1.40925" stroke-linecap="round"/>
</svg>
