<svg width="22" height="22" viewBox="0 0 22 22" fill="none" xmlns="http://www.w3.org/2000/svg">
<path d="M14.1426 8.24639L21 1.57971V14.0435L14.1426 21V8.24639Z" fill="#D4AF37"/>
<path d="M14.1433 7.57006H1.80955M14.1433 7.57006L19.572 1.86957M14.1433 7.57006V19.8406M4.23819 4.28503L2.6191 5.92754L1.80955 6.7488L1.13521 7.43289C1.04857 7.52078 1 7.63924 1 7.76266V9.21257V10.8551V14.1401V17.4251V19.0677V20.2404C1 20.4999 1.21031 20.7102 1.46975 20.7102H2.64291H4.28582H7.57163H10.8574H12.5004H13.5412C13.9258 20.7102 14.2936 20.553 14.5595 20.2751L15.7147 19.0677L17.2862 17.4251L18.8577 15.7826L20.2988 14.2763C20.3825 14.1889 20.4292 14.0726 20.4292 13.9516V10.8551V7.57006V4.28503V2.64251V1.46975C20.4292 1.21031 20.2189 1 19.9594 1H18.8101H17.191H13.9528H10.7146H9.09549H7.67294C7.54719 1 7.42669 1.05042 7.33841 1.13998L5.85729 2.64251L4.23819 4.28503Z" stroke="#262626" stroke-width="1.40925" stroke-linecap="round"/>
</svg>
