<svg width="22" height="22" viewBox="0 0 22 22" fill="none" xmlns="http://www.w3.org/2000/svg">
<path d="M1 8.05883L8.05882 1.29413V13.9412L1 21V8.05883Z" fill="#D4AF37"/>
<path d="M14.5294 7.66667H1.83333M14.5294 7.66667L20.1176 1.88235M14.5294 7.66667V20.1176M4.33333 4.33333L2.66667 6L1.83333 6.83333L1.13759 7.52908C1.04949 7.61718 1 7.73666 1 7.86124V9.33333V11V14.3333V17.6667V19.3333V20.5303C1 20.7897 1.21031 21 1.46975 21H2.69118H4.38235H7.76471H11.1471H12.8382H13.9333C14.3144 21 14.6792 20.8457 14.9446 20.5723L16.1471 19.3333L17.7647 17.6667L19.3824 16L20.8673 14.47C20.9524 14.3824 21 14.265 21 14.1429V11V7.66667V4.33333V2.66667V1.46975C21 1.21031 20.7897 1 20.5303 1H19.3333H17.6667H14.3333H11H9.33333H7.86124C7.73666 1 7.61718 1.04949 7.52908 1.13759L6 2.66667L4.33333 4.33333Z" stroke="#262626" stroke-width="1.40925" stroke-linecap="round"/>
</svg>
