<svg width="22" height="22" viewBox="0 0 22 22" fill="none" xmlns="http://www.w3.org/2000/svg">
<rect x="7.85809" y="1" width="13.1419" height="12.9412" fill="#D4AF37"/>
<path d="M14.1419 7.66667H1.80946M14.1419 7.66667L19.5701 1.88235M14.1419 7.66667V20.1176M4.23786 4.33333L2.61893 6L1.80946 6.83333L1.1328 7.52996C1.04764 7.61763 1 7.73504 1 7.85726V9.33333V11V14.3333V17.6667V19.3333V20.5303C1 20.7897 1.21031 21 1.46975 21H2.64274H4.28547H7.57095H10.8564H12.4992H13.5337C13.9219 21 14.2928 20.8399 14.5591 20.5575L15.7132 19.3333L17.2845 17.6667L18.8558 16L20.2992 14.4691C20.3814 14.3819 20.4272 14.2666 20.4272 14.1468V11V7.66667V4.33333V2.66667V1.46975C20.4272 1.21031 20.2168 1 19.9574 1H18.8082H17.1893H13.9514H10.7136H9.09465H7.6743C7.54735 1 7.42581 1.05138 7.33735 1.14245L5.85679 2.66667L4.23786 4.33333Z" stroke="#262626" stroke-width="1.40925" stroke-linecap="round"/>
</svg>
