<svg width="30" height="30" viewBox="0 0 30 30" fill="none" xmlns="http://www.w3.org/2000/svg">
<path d="M5.22148 5.53924L5.36612 5.36612C5.80003 4.9322 6.47359 4.88399 6.96076 5.22148L7.13388 5.36612L15 13.2325L22.8661 5.36612C23.3543 4.87796 24.1457 4.87796 24.6339 5.36612C25.122 5.85427 25.122 6.64573 24.6339 7.13388L16.7675 15L24.6339 22.8661C25.0678 23.3 25.116 23.9736 24.7785 24.4608L24.6339 24.6339C24.2 25.0678 23.5264 25.116 23.0392 24.7785L22.8661 24.6339L15 16.7675L7.13388 24.6339C6.64573 25.122 5.85427 25.122 5.36612 24.6339C4.87796 24.1457 4.87796 23.3543 5.36612 22.8661L13.2325 15L5.36612 7.13388C4.9322 6.69997 4.88399 6.02641 5.22148 5.53924L5.36612 5.36612L5.22148 5.53924Z" fill="#404040"/>
<rect x="9" y="9" width="4" height="4" rx="2" fill="#A81515"/>
<rect x="13" y="13" width="4" height="4" rx="2" fill="#A81515"/>
<rect x="17" y="17" width="4" height="4" rx="2" fill="#A81515"/>
<rect x="4" y="22" width="4" height="4" rx="2" fill="#A81515"/>
<rect x="17" y="9" width="4" height="4" rx="2" fill="#A81515"/>
<rect x="22" y="4" width="4" height="4" rx="2" fill="#A81515"/>
<rect x="4" y="4" width="4" height="4" rx="2" fill="#A81515"/>
<rect x="9" y="17" width="4" height="4" rx="2" fill="#A81515"/>
<rect x="22" y="22" width="4" height="4" rx="2" fill="#A81515"/>
</svg>
