<svg width="60" height="60" viewBox="0 0 60 60" fill="none" xmlns="http://www.w3.org/2000/svg">
<rect x="12" y="39" width="6" height="6" rx="3" fill="#8C8C8C"/>
<rect x="12" y="32" width="6" height="6" rx="3" fill="#8C8C8C"/>
<rect x="12" y="22" width="6" height="6" rx="3" fill="#262626"/>
<rect x="12" y="15" width="6" height="6" rx="3" fill="#262626"/>
<rect x="42" y="32" width="6" height="6" rx="3" fill="#262626"/>
<rect x="42" y="22" width="6" height="6" rx="3" fill="#8C8C8C"/>
<rect x="42" y="15" width="6" height="6" rx="3" fill="#8C8C8C"/>
<rect x="21" y="39" width="6" height="6" rx="3" fill="#8C8C8C"/>
<rect x="42" y="39" width="6" height="6" rx="3" fill="#262626"/>
<rect x="33" y="39" width="6" height="6" rx="3" fill="#262626"/>
<rect x="21" y="15" width="6" height="6" rx="3" fill="#262626"/>
<rect x="33" y="15" width="6" height="6" rx="3" fill="#8C8C8C"/>
<line x1="13" y1="30" x2="47" y2="30" stroke="black" stroke-width="2" stroke-linecap="round"/>
<line x1="30" y1="44" x2="30" y2="16" stroke="black" stroke-width="2" stroke-linecap="round"/>
</svg>
