<svg width="22" height="22" viewBox="0 0 22 22" fill="none" xmlns="http://www.w3.org/2000/svg">
<path d="M1.22148 1.53924L1.36612 1.36612C1.80003 0.932201 2.47359 0.883988 2.96076 1.22148L3.13388 1.36612L11 9.2325L18.8661 1.36612C19.3543 0.877961 20.1457 0.877961 20.6339 1.36612C21.122 1.85427 21.122 2.64573 20.6339 3.13388L12.7675 11L20.6339 18.8661C21.0678 19.3 21.116 19.9736 20.7785 20.4608L20.6339 20.6339C20.2 21.0678 19.5264 21.116 19.0392 20.7785L18.8661 20.6339L11 12.7675L3.13388 20.6339C2.64573 21.122 1.85427 21.122 1.36612 20.6339C0.877961 20.1457 0.877961 19.3543 1.36612 18.8661L9.2325 11L1.36612 3.13388C0.932201 2.69997 0.883988 2.02641 1.22148 1.53924L1.36612 1.36612L1.22148 1.53924Z" fill="#404040"/>
<rect x="5" y="5" width="4" height="4" rx="2" fill="#A81515"/>
<rect x="9" y="9" width="4" height="4" rx="2" fill="#A81515"/>
<rect x="13" y="13" width="4" height="4" rx="2" fill="#A81515"/>
<rect y="18" width="4" height="4" rx="2" fill="#A81515"/>
<rect x="13" y="5" width="4" height="4" rx="2" fill="#A81515"/>
<rect x="18" width="4" height="4" rx="2" fill="#A81515"/>
<rect width="4" height="4" rx="2" fill="#A81515"/>
<rect x="5" y="13" width="4" height="4" rx="2" fill="#A81515"/>
<rect x="18" y="18" width="4" height="4" rx="2" fill="#A81515"/>
</svg>
