<svg width="24" height="27" viewBox="0 0 24 27" fill="none" xmlns="http://www.w3.org/2000/svg">
<rect y="9" width="4" height="4" rx="2" fill="#D4AF37"/>
<rect x="9" width="4" height="4" rx="2" fill="#D4AF37"/>
<rect x="10" y="9" width="4" height="4" rx="2" fill="#D4AF37"/>
<rect x="2" y="15" width="4" height="4" rx="2" fill="#D4AF37"/>
<rect x="19" y="7" width="4" height="4" rx="2" fill="#D4AF37"/>
<rect x="16" y="2" width="4" height="4" rx="2" fill="#D4AF37"/>
<rect x="3" y="3" width="4" height="4" rx="2" fill="#D4AF37"/>
<rect x="8" y="18" width="4" height="4" rx="2" fill="#D4AF37"/>
<rect x="18" y="13" width="4" height="4" rx="2" fill="#D4AF37"/>
<path d="M14.6123 13.223C13.9561 12.6869 13 13.178 13 14.0512V25.9487C13 26.9435 14.1951 27.3798 14.7825 26.5995L17.5736 22.892C17.7821 22.6152 18.0996 22.4537 18.4356 22.4537H22.9991C23.9502 22.4537 24.3632 21.1897 23.6124 20.5763L14.6123 13.223Z" fill="#141414"/>
</svg>
