<svg width="30" height="30" viewBox="0 0 30 30" fill="none" xmlns="http://www.w3.org/2000/svg">
<path d="M12.0582 18.9412H24.7053L18.5288 25.7059H5.29352L12.0582 18.9412Z" fill="#D4AF37"/>
<path d="M18.5294 12.6667H5.83333M18.5294 12.6667L24.1176 6.88235M18.5294 12.6667V25.1176M8.33333 9.33333L6.66667 11L5.83333 11.8333L5.13759 12.5291C5.04949 12.6172 5 12.7367 5 12.8612V14.3333V16V19.3333V22.6667V24.3333V25.5303C5 25.7897 5.21031 26 5.46975 26H6.69118H8.38235H11.7647H15.1471H16.8382H17.9333C18.3144 26 18.6792 25.8457 18.9446 25.5723L20.1471 24.3333L21.7647 22.6667L23.3824 21L24.8673 19.47C24.9524 19.3824 25 19.265 25 19.1429V16V12.6667V9.33333V7.66667V6.46975C25 6.21031 24.7897 6 24.5303 6H23.3333H21.6667H18.3333H15H13.3333H11.8612C11.7367 6 11.6172 6.04949 11.5291 6.13759L10 7.66667L8.33333 9.33333Z" stroke="#262626" stroke-width="1.40925" stroke-linecap="round"/>
</svg>
