<svg width="30" height="30" viewBox="0 0 30 30" fill="none" xmlns="http://www.w3.org/2000/svg">
<rect x="11.8581" y="6" width="13.1419" height="12.9412" fill="#D4AF37"/>
<path d="M18.1419 12.6667H5.80946M18.1419 12.6667L23.5701 6.88235M18.1419 12.6667V25.1176M8.23786 9.33333L6.61893 11L5.80946 11.8333L5.1328 12.53C5.04764 12.6176 5 12.735 5 12.8573V14.3333V16V19.3333V22.6667V24.3333V25.5303C5 25.7897 5.21031 26 5.46975 26H6.64274H8.28547H11.5709H14.8564H16.4992H17.5337C17.9219 26 18.2928 25.8399 18.5591 25.5575L19.7132 24.3333L21.2845 22.6667L22.8558 21L24.2992 19.4691C24.3814 19.3819 24.4272 19.2666 24.4272 19.1468V16V12.6667V9.33333V7.66667V6.46975C24.4272 6.21031 24.2168 6 23.9574 6H22.8082H21.1893H17.9514H14.7136H13.0946H11.6743C11.5474 6 11.4258 6.05138 11.3374 6.14245L9.85679 7.66667L8.23786 9.33333Z" stroke="#262626" stroke-width="1.40925" stroke-linecap="round"/>
</svg>
