<svg width="30" height="30" viewBox="0 0 30 30" fill="none" xmlns="http://www.w3.org/2000/svg">
<rect x="5" y="11.8816" width="14.1176" height="13.5294" fill="#D4AF37"/>
<path d="M18.5295 12.6667H5.83346M18.5295 12.6667L24.1178 6.88235M18.5295 12.6667V25.1176M8.33346 9.33333L6.66679 11L5.83346 11.8333L5.13771 12.5291C5.04961 12.6172 5.00012 12.7367 5.00012 12.8612V14.3333V16V19.3333V22.6667V24.3333V25.5303C5.00012 25.7897 5.21044 26 5.46987 26H6.6913H8.38248H11.7648H15.1472H16.8384H17.9334C18.3145 26 18.6793 25.8457 18.9447 25.5723L20.1472 24.3333L21.7648 22.6667L23.3825 21L24.8675 19.47C24.9525 19.3824 25.0001 19.265 25.0001 19.1429V16V12.6667V9.33333V7.66667V6.46975C25.0001 6.21031 24.7898 6 24.5304 6H23.3335H21.6668H18.3335H15.0001H13.3335H11.8614C11.7368 6 11.6173 6.04949 11.5292 6.13759L10.0001 7.66667L8.33346 9.33333Z" stroke="#262626" stroke-width="1.40925" stroke-linecap="round"/>
</svg>
