<svg width="30" height="30" viewBox="0 0 30 30" fill="none" xmlns="http://www.w3.org/2000/svg">
<path d="M15.8641 4.03446C9.80746 3.55784 4.51114 8.08089 4.03447 14.137C3.55779 20.1931 8.08129 25.4889 14.138 25.9655C20.1946 26.4422 25.491 21.9191 25.9676 15.863C25.9983 15.4733 26.0069 15.0545 25.9945 14.6405C25.9775 14.0712 25.5021 13.6236 24.9328 13.6406C24.3635 13.6577 23.9158 14.133 23.9329 14.7023C23.9431 15.0441 23.936 15.3885 23.9114 15.7012C23.5241 20.6218 19.2208 24.2968 14.2998 23.9095C9.37874 23.5222 5.70341 19.2194 6.0907 14.2988C6.47799 9.37823 10.7813 5.70324 15.7023 6.0905C18.0898 6.27838 20.2479 7.39731 21.7696 9.16303L22.0494 9.50385L18.7784 9.50504L18.6385 9.51446C18.1351 9.58274 17.7472 10.0142 17.7472 10.5362C17.7472 11.0583 18.1351 11.4897 18.6385 11.558L18.7784 11.5674H24.2786L24.4186 11.558C24.8762 11.4959 25.2384 11.1337 25.3005 10.6762L25.3099 10.5362V5.03652L25.3005 4.89659C25.2384 4.43902 24.8762 4.07681 24.4186 4.01473L24.2786 4.00532L24.1387 4.01473C23.6811 4.07681 23.3188 4.43902 23.2567 4.89659L23.2473 5.03652L23.249 7.72141C21.3818 5.60416 18.7581 4.2622 15.8641 4.03446Z" fill="#262626"/>
</svg>
