<svg width="30" height="30" viewBox="0 0 30 30" fill="none" xmlns="http://www.w3.org/2000/svg">
<path d="M18.9444 14.0556C18.9444 13.5953 18.5713 13.2222 18.1111 13.2222H15.8889H14.2222H12C11.5398 13.2222 11.1667 13.5953 11.1667 14.0556C11.1667 14.5158 11.5398 14.8889 12 14.8889H14.2222H15.8889H18.1111C18.5713 14.8889 18.9444 14.5158 18.9444 14.0556ZM15.0556 6C19.5045 6 23.1111 9.6066 23.1111 14.0556C23.1111 15.9799 22.4364 17.7466 21.3106 19.132L26.7559 24.5774C27.0814 24.9028 27.0814 25.4305 26.7559 25.7559C26.4601 26.0518 25.9971 26.0787 25.6709 25.8366L25.5774 25.7559L20.132 20.3106C18.7466 21.4364 16.9799 22.1111 15.0556 22.1111C10.6066 22.1111 7 18.5045 7 14.0556C7 9.6066 10.6066 6 15.0556 6ZM15.0556 7.66667C11.5271 7.66667 8.66667 10.5271 8.66667 14.0556C8.66667 17.584 11.5271 20.4444 15.0556 20.4444C18.584 20.4444 21.4444 17.584 21.4444 14.0556C21.4444 10.5271 18.584 7.66667 15.0556 7.66667Z" fill="#262626"/>
</svg>
