<svg width="30" height="30" viewBox="0 0 30 30" fill="none" xmlns="http://www.w3.org/2000/svg">
<path d="M11.4706 6H24.7059L18.5294 12.6667H5L11.4706 6Z" fill="#D4AF37"/>
<path d="M18.5294 12.8599H5.83333M18.5294 12.8599L24.1176 7.15936M18.5294 12.8599V25.1304M8.33333 9.57482L6.66667 11.2173L5.83333 12.0386L5.14002 12.7219C5.05044 12.8101 5 12.9307 5 13.0564V14.5024V16.1449V19.4299V22.7149V24.3574V25.5302C5 25.7896 5.21031 26 5.46975 26H6.69118H8.38235H11.7647H15.1471H16.8382H17.9394C18.3169 26 18.6786 25.8485 18.9434 25.5796L20.1471 24.3574L21.7647 22.7149L23.3824 21.0724L24.8649 19.567C24.9515 19.4792 25 19.3608 25 19.2374V16.1449V12.8599V9.57482V7.93231V6.75954C25 6.50011 24.7897 6.28979 24.5303 6.28979H23.3333H21.6667H18.3333H15H13.3333H11.8592C11.7358 6.28979 11.6174 6.33835 11.5295 6.42497L10 7.93231L8.33333 9.57482Z" stroke="#262626" stroke-width="1.40925" stroke-linecap="round"/>
</svg>
