<svg width="60" height="60" viewBox="0 0 60 60" fill="none" xmlns="http://www.w3.org/2000/svg">
<path d="M29.9971 36.994C30.5501 36.994 30.9971 36.546 30.9971 35.994L30.9971 14.484L37.3401 20.611C37.7351 20.995 38.3701 20.984 38.7531 20.587C39.1371 20.19 39.1261 19.557 38.7291 19.173L30.7061 11.422L30.7041 11.42L30.6921 11.409C30.6551 11.373 30.6081 11.358 30.5681 11.329C30.5061 11.284 30.4481 11.234 30.3761 11.205C30.2551 11.155 30.1271 11.129 29.9981 11.129C29.8691 11.129 29.7411 11.156 29.6201 11.205C29.5531 11.232 29.5001 11.279 29.4421 11.32C29.3961 11.351 29.3441 11.37 29.3031 11.41L21.2671 19.175C20.8711 19.559 20.8601 20.192 21.2441 20.589C21.6281 20.986 22.2611 20.997 22.6581 20.613L28.9971 14.484L28.9971 35.994C28.9971 36.546 29.4441 36.994 29.9971 36.994Z" fill="#231F20"/>
<rect x="12" y="39" width="6" height="6" rx="3" fill="#262626"/>
<rect x="12" y="31" width="6" height="6" rx="3" fill="#262626"/>
<rect x="12" y="23" width="6" height="6" rx="3" fill="#262626"/>
<rect x="21" y="23" width="6" height="6" rx="3" fill="#262626"/>
<rect x="42" y="31" width="6" height="6" rx="3" fill="#262626"/>
<rect x="42" y="23" width="6" height="6" rx="3" fill="#262626"/>
<rect x="33" y="23" width="6" height="6" rx="3" fill="#262626"/>
<rect x="22" y="39" width="6" height="6" rx="3" fill="#262626"/>
<rect x="42" y="39" width="6" height="6" rx="3" fill="#262626"/>
<rect x="32" y="39" width="6" height="6" rx="3" fill="#262626"/>
</svg>
