<svg width="60" height="60" viewBox="0 0 60 60" fill="none" xmlns="http://www.w3.org/2000/svg">
<path d="M30 10C29.447 10 29 10.448 29 11V32.51L22.657 26.383C22.262 25.999 21.627 26.01 21.244 26.407C20.86 26.804 20.871 27.437 21.268 27.821L29.291 35.572L29.293 35.574L29.305 35.585C29.342 35.621 29.389 35.636 29.429 35.665C29.491 35.71 29.549 35.76 29.621 35.789C29.742 35.839 29.87 35.865 29.999 35.865C30.128 35.865 30.256 35.838 30.377 35.789C30.444 35.762 30.497 35.715 30.555 35.674C30.601 35.643 30.653 35.624 30.694 35.584L38.73 27.819C39.126 27.435 39.137 26.802 38.753 26.405C38.369 26.008 37.736 25.997 37.339 26.381L31 32.51V11C31 10.448 30.553 10 30 10Z" fill="#D4AF37"/>
<rect x="13" y="37.871" width="6" height="6" rx="3" fill="#262626"/>
<rect x="8" y="31.871" width="6" height="6" rx="3" fill="#262626"/>
<rect x="9" y="23.871" width="6" height="6" rx="3" fill="#262626"/>
<rect x="16" y="18.871" width="6" height="6" rx="3" fill="#262626"/>
<rect x="46" y="31.871" width="6" height="6" rx="3" fill="#262626"/>
<rect x="45" y="23.871" width="6" height="6" rx="3" fill="#262626"/>
<rect x="38" y="18.871" width="6" height="6" rx="3" fill="#262626"/>
<rect x="22" y="38.871" width="6" height="6" rx="3" fill="#262626"/>
<rect x="41" y="37.871" width="6" height="6" rx="3" fill="#262626"/>
<rect x="32" y="38.871" width="6" height="6" rx="3" fill="#262626"/>
</svg>
