<svg width="60" height="60" viewBox="0 0 60 60" fill="none" xmlns="http://www.w3.org/2000/svg">
<rect x="14" y="15" width="5" height="5" rx="2.5" fill="#404040"/>
<rect x="21" y="13" width="5" height="5" rx="2.5" fill="#404040"/>
<rect x="22" y="21" width="5" height="5" rx="2.5" fill="#D4AF37"/>
<path d="M38 22.5C38 21.1193 39.1193 20 40.5 20C41.8807 20 43 21.1193 43 22.5C43 23.8807 41.8807 25 40.5 25C39.1193 25 38 23.8807 38 22.5Z" fill="#D4AF37"/>
<rect x="30" y="20" width="5" height="5" rx="2.5" fill="#D4AF37"/>
<rect x="28" y="12" width="5" height="5" rx="2.5" fill="#404040"/>
<rect x="35" y="12" width="5" height="5" rx="2.5" fill="#404040"/>
<rect x="42" y="12" width="5" height="5" rx="2.5" fill="#404040"/>
<rect x="48" y="14" width="5" height="5" rx="2.5" fill="#404040"/>
<rect x="21" y="41" width="5" height="5" rx="2.5" fill="#404040"/>
<rect x="28" y="41" width="5" height="5" rx="2.5" fill="#404040"/>
<rect x="35" y="41" width="5" height="5" rx="2.5" fill="#404040"/>
<rect x="43" y="35" width="5" height="5" rx="2.5" fill="#404040"/>
<rect x="42" y="41" width="5" height="5" rx="2.5" fill="#404040"/>
<rect x="9" y="35" width="5" height="5" rx="2.5" fill="#404040"/>
<rect x="11" y="28" width="5" height="5" rx="2.5" fill="#404040"/>
<rect x="13" y="22" width="5" height="5" rx="2.5" fill="#404040"/>
<rect x="46" y="21" width="5" height="5" rx="2.5" fill="#404040"/>
<rect x="8" y="42" width="5" height="5" rx="2.5" fill="#404040"/>
<rect x="45" y="28" width="5" height="5" rx="2.5" fill="#404040"/>
<rect x="15" y="42" width="5" height="5" rx="2.5" fill="#404040"/>
<rect x="20" y="28" width="5" height="5" rx="2.5" fill="#D4AF37"/>
<rect x="28" y="27" width="5" height="5" rx="2.5" fill="#D4AF37"/>
<rect x="36" y="27" width="5" height="5" rx="2.5" fill="#D4AF37"/>
<rect x="17" y="35" width="5" height="5" rx="2.5" fill="#D4AF37"/>
<rect x="26" y="34" width="5" height="5" rx="2.5" fill="#D4AF37"/>
<rect x="34" y="34" width="5" height="5" rx="2.5" fill="#D4AF37"/>
</svg>
