<svg width="30" height="30" viewBox="0 0 30 30" fill="none" xmlns="http://www.w3.org/2000/svg">
<path d="M18.1426 13.2464L25 6.57971V19.0435L18.1426 26V13.2464Z" fill="#D4AF37"/>
<path d="M18.1433 12.5701H5.80955M18.1433 12.5701L23.572 6.86957M18.1433 12.5701V24.8406M8.23819 9.28503L6.6191 10.9275L5.80955 11.7488L5.13521 12.4329C5.04857 12.5208 5 12.6392 5 12.7627V14.2126V15.8551V19.1401V22.4251V24.0677V25.2404C5 25.4999 5.21031 25.7102 5.46975 25.7102H6.64291H8.28582H11.5716H14.8574H16.5004H17.5412C17.9258 25.7102 18.2936 25.553 18.5595 25.2751L19.7147 24.0677L21.2862 22.4251L22.8577 20.7826L24.2988 19.2763C24.3825 19.1889 24.4292 19.0726 24.4292 18.9516V15.8551V12.5701V9.28503V7.64251V6.46975C24.4292 6.21031 24.2189 6 23.9594 6H22.8101H21.191H17.9528H14.7146H13.0955H11.6729C11.5472 6 11.4267 6.05042 11.3384 6.13998L9.85729 7.64251L8.23819 9.28503Z" stroke="#262626" stroke-width="1.40925" stroke-linecap="round"/>
</svg>
