<svg width="10" height="10" viewBox="0 0 10 10" fill="none" xmlns="http://www.w3.org/2000/svg">
<path d="M5.55556 0.555556C5.55556 0.248731 5.30683 0 5 0C4.69318 0 4.44444 0.248731 4.44444 0.555556V4.44444H0.555556C0.248731 4.44444 0 4.69318 0 5C0 5.30683 0.248731 5.55556 0.555556 5.55556H4.44444V9.44444C4.44444 9.75127 4.69318 10 5 10C5.30683 10 5.55556 9.75127 5.55556 9.44444V5.55556H9.44444C9.75127 5.55556 10 5.30683 10 5C10 4.69318 9.75127 4.44444 9.44444 4.44444H5.55556V0.555556Z" fill="#141414"/>
</svg>
