<svg width="22" height="22" viewBox="0 0 22 22" fill="none" xmlns="http://www.w3.org/2000/svg">
<path d="M11.8641 0.034463C5.80746 -0.442162 0.511137 4.08089 0.0344658 10.137C-0.442205 16.1931 4.08129 21.4889 10.138 21.9655C16.1946 22.4422 21.491 17.9191 21.9676 11.863C21.9983 11.4733 22.0069 11.0545 21.9945 10.6405C21.9775 10.0712 21.5021 9.62358 20.9328 9.64065C20.3635 9.65771 19.9158 10.133 19.9329 10.7023C19.9431 11.0441 19.936 11.3885 19.9114 11.7012C19.5241 16.6218 15.2208 20.2968 10.2998 19.9095C5.37874 19.5222 1.70341 15.2194 2.0907 10.2988C2.47799 5.37823 6.78126 1.70324 11.7023 2.0905C14.0898 2.27838 16.2479 3.39731 17.7696 5.16303L18.0494 5.50385L14.7784 5.50504L14.6385 5.51446C14.1351 5.58274 13.7472 6.01418 13.7472 6.53624C13.7472 7.05829 14.1351 7.48974 14.6385 7.55802L14.7784 7.56744H20.2786L20.4186 7.55802C20.8762 7.49595 21.2384 7.13374 21.3005 6.67617L21.3099 6.53624V1.03652L21.3005 0.89659C21.2384 0.439018 20.8762 0.0768077 20.4186 0.0147328L20.2786 0.00531911L20.1387 0.0147328C19.6811 0.0768077 19.3188 0.439018 19.2567 0.89659L19.2473 1.03652L19.249 3.72141C17.3818 1.60416 14.7581 0.262204 11.8641 0.034463Z" fill="#262626"/>
</svg>
